# xmcd CD database file
#
# Track frame offsets:
#	150
#	19043
#	36931
#	54523
#	71902
#	90623
#	111695
#	132530
#	149615
#	170326
#	193600
#	213682
#	232436
#	255126
#
# Disc length: 3642 seconds
#
# Revision: 0
# Processed by: cddbd v1.5PL3 Copyright (c) Steve Scherf et al.
# Submitted via: CDex 1.51
#
DISCID=dd0e380e
DTITLE=長山洋子 - でもね・・・洋子/長山洋子ベスト
DYEAR=1995
DGENRE=Blues
TTITLE0=捨てられて
TTITLE1=私が生まれて育ったところ
TTITLE2=あんただけ
TTITLE3=めおと酒
TTITLE4=なみだ酒
TTITLE5=堂島川
TTITLE6=築地川
TTITLE7=チャンチキ娘
TTITLE8=夢ひとつ
TTITLE9=淡墨 (うすずみ)
TTITLE10=蜩 (ひぐらし)
TTITLE11=告白
TTITLE12=海に降る雪
TTITLE13=蒼月 (つき)
EXTD=YEAR: 1995
EXTT0=
EXTT1=
EXTT2=
EXTT3=
EXTT4=
EXTT5=
EXTT6=
EXTT7=
EXTT8=
EXTT9=
EXTT10=
EXTT11=
EXTT12=
EXTT13=
PLAYORDER=
